<?xml version="1.0" encoding="UTF-8" standalone="no"?>
<!-- Created with Inkscape (http://www.inkscape.org/) -->

<svg
   width="210mm"
   height="297mm"
   viewBox="0 0 210 297"
   version="1.1"
   id="svg1"
   xml:space="preserve"
   inkscape:version="1.4.2 (1:1.4.2+202505120737+ebf0e940d0)"
   sodipodi:docname="calendar.svg"
   xmlns:inkscape="http://www.inkscape.org/namespaces/inkscape"
   xmlns:sodipodi="http://sodipodi.sourceforge.net/DTD/sodipodi-0.dtd"
   xmlns="http://www.w3.org/2000/svg"
   xmlns:svg="http://www.w3.org/2000/svg"><sodipodi:namedview
     id="namedview1"
     pagecolor="#ffffff"
     bordercolor="#000000"
     borderopacity="0.25"
     inkscape:showpageshadow="2"
     inkscape:pageopacity="0.0"
     inkscape:pagecheckerboard="0"
     inkscape:deskcolor="#d1d1d1"
     inkscape:document-units="mm"
     inkscape:zoom="3.026175"
     inkscape:cx="256.42932"
     inkscape:cy="167.04256"
     inkscape:window-width="2560"
     inkscape:window-height="1403"
     inkscape:window-x="4240"
     inkscape:window-y="0"
     inkscape:window-maximized="1"
     inkscape:current-layer="svg1" /><defs
     id="defs1" /><g
     inkscape:groupmode="layer"
     id="layer2"
     inkscape:label="drawing"
     style="opacity:1"><g
       id="g4"
       inkscape:label="days"><rect
         style="fill:#000000;fill-opacity:1;stroke:none;stroke-width:0.264583"
         id="rect3-3"
         width="18.098345"
         height="13.72676"
         x="94.751465"
         y="92.667831"
         ry="2.6666634"
         inkscape:label="day23" /><rect
         style="fill:#000000;fill-opacity:1;stroke:none;stroke-width:0.264583"
         id="rect3-6"
         width="18.098345"
         height="13.72676"
         x="67.638519"
         y="92.521828"
         ry="2.6666634"
         inkscape:label="day22" /><rect
         style="fill:#000000;fill-opacity:1;stroke:none;stroke-width:0.264583"
         id="rect3-0"
         width="18.098345"
         height="13.72676"
         x="40.866138"
         y="92.602867"
         ry="2.6666634"
         inkscape:label="day21" /><rect
         style="fill:#000000;fill-opacity:1;stroke:none;stroke-width:0.264583"
         id="rect3-7"
         width="18.098345"
         height="13.72676"
         x="94.728592"
         y="68.261147"
         ry="2.6666634"
         inkscape:label="day13" /><rect
         style="fill:#000000;fill-opacity:1;stroke:none;stroke-width:0.264583"
         id="rect3-2"
         width="18.098345"
         height="13.72676"
         x="67.505318"
         y="68.182449"
         ry="2.6666634"
         inkscape:label="day12" /><rect
         style="fill:#000000;fill-opacity:1;stroke:none;stroke-width:0.264583"
         id="rect3"
         width="18.098345"
         height="13.72676"
         x="40.743126"
         y="68.371513"
         ry="2.6666634"
         inkscape:label="day11" /></g><g
       id="g5"
       inkscape:label="calendar"><path
         id="rect2"
         style="opacity:1;fill:#000000;fill-opacity:1;stroke:none;stroke-width:0.264583"
         inkscape:label="calendar"
         d="M 32.970597 29.095898 C 27.061269 29.095898 22.304065 33.853103 22.304065 39.762431 L 22.304065 117.63365 C 22.304065 123.54297 27.061269 128.30018 32.970597 128.30018 L 120.99106 128.30018 C 126.90039 128.30018 131.6576 123.54297 131.6576 117.63365 L 131.6576 39.762431 C 131.6576 33.853103 126.90039 29.095898 120.99106 29.095898 L 114.89118 29.095898 L 114.89118 41.378353 C 114.89118 46.706435 110.60176 50.995854 105.27368 50.995854 C 99.945596 50.995854 95.656177 46.706435 95.656177 41.378353 L 95.656177 29.095898 L 58.054338 29.095898 L 58.054338 41.355098 C 58.054338 46.68318 53.765435 50.972599 48.437354 50.972599 C 43.109272 50.972599 38.819853 46.68318 38.819853 41.355098 L 38.819853 29.095898 L 32.970597 29.095898 z M 31.038416 55.344425 L 122.75375 55.344425 L 122.75375 119.78132 L 31.038416 119.78132 L 31.038416 55.344425 z " /><rect
         style="opacity:1;fill:#000000;fill-opacity:1;stroke:none;stroke-width:0.264583"
         id="rect4-6"
         width="11.715837"
         height="29.639315"
         x="99.334991"
         y="18.225147"
         ry="5.8579183"
         inkscape:label="ring-r" /><rect
         style="fill:#000000;fill-opacity:1;stroke:none;stroke-width:0.264583"
         id="rect4"
         width="11.715837"
         height="29.639315"
         x="42.49176"
         y="18.185772"
         ry="5.8579183"
         inkscape:label="ring-l" /></g></g></svg>
