<?xml version="1.0" encoding="UTF-8" standalone="no"?>
<!-- Created with Inkscape (http://www.inkscape.org/) -->

<svg
   width="49mm"
   height="49mm"
   viewBox="0 0 49 49"
   version="1.1"
   id="svg1"
   xml:space="preserve"
   inkscape:version="1.4 (1:1.4+202410161351+e7c3feb100)"
   sodipodi:docname="edit.svg"
   inkscape:export-filename="edit_30x30.png"
   inkscape:export-xdpi="15.55102"
   inkscape:export-ydpi="15.55102"
   xmlns:inkscape="http://www.inkscape.org/namespaces/inkscape"
   xmlns:sodipodi="http://sodipodi.sourceforge.net/DTD/sodipodi-0.dtd"
   xmlns="http://www.w3.org/2000/svg"
   xmlns:svg="http://www.w3.org/2000/svg"><sodipodi:namedview
     id="namedview1"
     pagecolor="#ffffff"
     bordercolor="#000000"
     borderopacity="0.25"
     inkscape:showpageshadow="2"
     inkscape:pageopacity="0.0"
     inkscape:pagecheckerboard="0"
     inkscape:deskcolor="#d1d1d1"
     inkscape:document-units="mm"
     inkscape:zoom="2.9279062"
     inkscape:cx="76.334413"
     inkscape:cy="103.14538"
     inkscape:window-width="1920"
     inkscape:window-height="1003"
     inkscape:window-x="0"
     inkscape:window-y="40"
     inkscape:window-maximized="1"
     inkscape:current-layer="layer2"
     showgrid="false" /><defs
     id="defs1" /><g
     inkscape:groupmode="layer"
     id="layer2"
     inkscape:label="drawing"
     transform="translate(-32.802878,-32.170316)"><path
       id="rect1-0"
       style="opacity:1;fill:#19ff19;fill-opacity:1;stroke:none;stroke-width:3.4;stroke-linecap:round;stroke-linejoin:round;stroke-dasharray:none;stroke-opacity:1"
       d="m 74.584422,65.739605 c 1.429057,1.428525 1.347836,1.557459 2.050273,3.629778 l 3.324876,9.808992 -10.052721,-3.308597 c -1.949384,-0.64159 -1.992459,-0.80479 -3.433403,-2.249384 L 35.173889,42.241527 C 34.028954,41.093691 33.9966,39.594456 35.453711,38.263694 l 4.157157,-3.796684 c 1.207348,-1.102657 2.716766,-0.97219 3.873168,0.183782 z"
       sodipodi:nodetypes="sscsssssss"
       inkscape:label="background" /><path
       id="rect1"
       style="opacity:1;fill:none;stroke:#000000;stroke-width:3.4;stroke-linecap:round;stroke-linejoin:round;stroke-dasharray:none;stroke-opacity:1"
       d="m 74.591049,65.916463 c 1.429057,1.428525 1.347836,1.557459 2.050273,3.629778 l 3.324876,9.808992 -10.052721,-3.308597 c -1.949384,-0.64159 -1.992459,-0.80479 -3.433403,-2.249384 L 35.180516,42.418385 c -1.144935,-1.147836 -1.177289,-2.647071 0.279822,-3.977833 l 4.157157,-3.796684 c 1.207348,-1.102657 2.716766,-0.97219 3.873168,0.183782 z"
       sodipodi:nodetypes="sscsssssss"
       inkscape:label="frame"
       transform="translate(3.7500001e-7)" /><path
       id="rect1-1"
       style="opacity:1;fill:none;stroke:#000000;stroke-width:3.4;stroke-linecap:round;stroke-linejoin:round;stroke-dasharray:none;stroke-opacity:1"
       d="m 39.881648,45.673711 6.687407,-6.4173"
       sodipodi:nodetypes="cc"
       inkscape:label="line_end" /><path
       id="rect1-1-2"
       style="opacity:1;fill:none;stroke:#000000;stroke-width:3.4;stroke-linecap:round;stroke-linejoin:round;stroke-dasharray:none;stroke-opacity:1"
       d="m 68.561,74.712033 6.687407,-6.778764"
       sodipodi:nodetypes="cc"
       inkscape:label="line_tip" /></g></svg>
