<?xml version="1.0" encoding="UTF-8" standalone="no"?>
<!-- Created with Inkscape (http://www.inkscape.org/) -->

<svg
   version="1.1"
   id="svg1"
   width="79mm"
   height="79mm"
   viewBox="0 0 298.58268 298.58267"
   sodipodi:docname="folder.svg"
   inkscape:version="1.4.2 (1:1.4.2+202505120738+ebf0e940d0)"
   inkscape:export-filename="export_folder_30x30.png"
   inkscape:export-xdpi="9.6455698"
   inkscape:export-ydpi="9.6455698"
   xmlns:inkscape="http://www.inkscape.org/namespaces/inkscape"
   xmlns:sodipodi="http://sodipodi.sourceforge.net/DTD/sodipodi-0.dtd"
   xmlns="http://www.w3.org/2000/svg"
   xmlns:svg="http://www.w3.org/2000/svg">
  <defs
     id="defs1" />
  <sodipodi:namedview
     id="namedview1"
     pagecolor="#ffffff"
     bordercolor="#000000"
     borderopacity="0.25"
     inkscape:showpageshadow="2"
     inkscape:pageopacity="0.0"
     inkscape:pagecheckerboard="true"
     inkscape:deskcolor="#d1d1d1"
     showgrid="false"
     inkscape:zoom="1.9170939"
     inkscape:cx="189.3491"
     inkscape:cy="183.08962"
     inkscape:window-width="1920"
     inkscape:window-height="1003"
     inkscape:window-x="0"
     inkscape:window-y="40"
     inkscape:window-maximized="1"
     inkscape:current-layer="layer1"
     inkscape:document-units="mm" />
  <g
     inkscape:groupmode="layer"
     id="layer1"
     inkscape:label="drawing"
     transform="matrix(0.95690248,0,0,1,-2.1950542,58.019372)"
     style="stroke-width:1.02227">
    <path
       style="display:inline;opacity:1;fill:#b0b0b0;fill-opacity:1;stroke:#606060;stroke-width:23.18221508;stroke-linejoin:round;stroke-dasharray:none;stroke-opacity:1"
       d="M 264.72679,112.40587 10.542815,215.09189 10.572598,185.26833 10.305233,32.842714 C 10.277572,17.072934 14.283988,8.8334959 33.181503,8.9826408 L 82.750934,9.373858 c 15.746359,0.1242751 17.747636,4.608219 27.219246,15.3939 l 9.27008,10.556184 c 15.00891,17.091221 14.93901,19.351489 36.53281,19.257661 l 93.5348,-0.40642 c 18.12739,-0.07877 23.1051,12.016078 23.13675,20.014371 0,0 0.0607,13.338281 0.58242,30.905506 z"
       id="path1"
       inkscape:label="back"
       sodipodi:nodetypes="cccsssssssscc" />
    <g
       id="g2"
       inkscape:label="arrow"
       style="fill:none;fill-opacity:1;stroke-width:23.18221508;stroke-dasharray:none;stroke:#00aa00;stroke-opacity:1"
       transform="translate(19.300042,49.554168)">
      <path
         style="fill:none;fill-opacity:1;stroke:#00aa00;stroke-width:30.90962011;stroke-linecap:round;stroke-linejoin:round;stroke-dasharray:none;stroke-opacity:1"
         d="M 238.46948,-15.648689 195.60857,30.775742 147.18548,-16.170314"
         id="path2"
         inkscape:label="tip"
         sodipodi:nodetypes="ccc" />
      <path
         style="fill:none;fill-opacity:1;stroke:#00aa00;stroke-width:30.90962011;stroke-linecap:round;stroke-linejoin:round;stroke-dasharray:none;stroke-opacity:1"
         d="m 193.95585,-88.642943 0.52163,94.3478462"
         id="rect2"
         inkscape:label="body"
         sodipodi:nodetypes="cc" />
    </g>
    <path
       style="display:inline;opacity:1;fill:#b0b0b0;fill-opacity:1;stroke:#606060;stroke-width:23.18221508;stroke-linejoin:round;stroke-dasharray:none;stroke-opacity:1"
       d="M 44.241465,106.27984 C 51.597344,83.333326 61.457587,87.020472 77.331832,87.06378 l 211.282218,0.576423 c 20.73007,0.05656 18.50899,12.944887 13.97603,27.552507 l -30.54506,98.43253 c -4.65868,15.01278 -11.35095,17.6862 -32.53303,17.7777 l -209.482597,0.90491 c -19.786012,0.0855 -22.94167,-10.12767 -15.551178,-33.18216 z"
       id="rect1"
       inkscape:label="front"
       sodipodi:nodetypes="sssssssss" />
  </g>
</svg>
