<?xml version="1.0" encoding="UTF-8" standalone="no"?>
<!-- Created with Inkscape (http://www.inkscape.org/) -->

<svg
   width="69mm"
   height="69mm"
   viewBox="0 0 69 69"
   version="1.1"
   id="svg1"
   xml:space="preserve"
   inkscape:version="1.4.2 (1:1.4.2+202505120738+ebf0e940d0)"
   sodipodi:docname="tag.svg"
   inkscape:export-filename="tags_36x36.png"
   inkscape:export-xdpi="13.252173"
   inkscape:export-ydpi="13.252173"
   xmlns:inkscape="http://www.inkscape.org/namespaces/inkscape"
   xmlns:sodipodi="http://sodipodi.sourceforge.net/DTD/sodipodi-0.dtd"
   xmlns="http://www.w3.org/2000/svg"
   xmlns:svg="http://www.w3.org/2000/svg"><sodipodi:namedview
     id="namedview1"
     pagecolor="#ffffff"
     bordercolor="#000000"
     borderopacity="0.25"
     inkscape:showpageshadow="2"
     inkscape:pageopacity="0.0"
     inkscape:pagecheckerboard="0"
     inkscape:deskcolor="#d1d1d1"
     inkscape:document-units="mm"
     inkscape:zoom="4.1406846"
     inkscape:cx="156.37511"
     inkscape:cy="90.081722"
     inkscape:window-width="1920"
     inkscape:window-height="1003"
     inkscape:window-x="0"
     inkscape:window-y="40"
     inkscape:window-maximized="1"
     inkscape:current-layer="layer2"
     showgrid="false" /><defs
     id="defs1" /><g
     inkscape:groupmode="layer"
     id="layer2"
     inkscape:label="drawing"
     transform="translate(-28.374941,-19.157604)"><g
       id="g3"
       inkscape:label="tag-top"><path
         id="path10"
         style="fill:#8e8e8e;fill-opacity:1;stroke:none;stroke-width:1.5;stroke-linecap:round;stroke-opacity:1"
         d="m 74.734902,35.18319 c 2.020547,0.01648 4.502816,1.966551 4.566898,3.986149 l 0.08156,4.228452 0.03039,10.106867 c 0.0017,1.081965 -0.475147,2.239534 -1.248563,2.996159 L 56.642643,77.55611 c -1.456225,1.42461 -4.688265,1.505482 -6.111353,0.04777 L 36.039182,62.759186 c -1.14221,-1.169999 -0.9323,-3.741549 0.221323,-4.900296 L 57.652094,36.372299 c 0.806196,-0.809776 2.028257,-1.311883 3.170886,-1.302564 l 10.03982,0.08188 z"
         sodipodi:nodetypes="sscsssssssscs"
         inkscape:label="background" /><path
         d="M 52.932102,71.690103 63.263939,61.093496"
         style="fill:none;stroke:#000000;stroke-width:1.5;stroke-linecap:round;stroke-opacity:1"
         id="path3"
         sodipodi:nodetypes="cc"
         inkscape:label="line-3" /><path
         d="M 47.820226,66.514329 66.139369,47.73872"
         style="fill:none;stroke:#000000;stroke-width:1.5;stroke-linecap:round;stroke-opacity:1"
         id="path2"
         sodipodi:nodetypes="cc"
         inkscape:label="line-2" /><path
         d="M 42.580553,60.955164 56.490703,47.099736"
         style="fill:none;stroke:#000000;stroke-width:1.5;stroke-linecap:round;stroke-opacity:1"
         id="path1"
         sodipodi:nodetypes="cc"
         inkscape:label="line-1" /><path
         id="path9"
         style="fill:none;stroke:#000000;stroke-width:1.5;stroke-linecap:round"
         d="m 74.540077,38.642035 c 0.753115,0.356263 1.199791,1.037972 1.115235,2.004269 -0.08456,0.966297 -0.900188,1.703757 -1.870095,1.690852 -0.969904,-0.0129 -1.786811,-0.509364 -2.110251,-1.389709"
         sodipodi:nodetypes="cssc"
         inkscape:label="hole" /><path
         id="rect1"
         style="fill:none;stroke:#000000;stroke-width:1.5;stroke-linecap:round;stroke-opacity:1"
         d="m 72.781189,35.16726 1.953713,0.01593 c 2.020547,0.01648 4.502816,1.966551 4.566898,3.986149 l 0.08156,4.228452 0.03039,10.106867 c 0.0017,1.081965 -0.475147,2.239534 -1.248563,2.996159 L 56.642643,77.55611 c -1.456225,1.42461 -4.688265,1.505482 -6.111353,0.04777 L 36.039182,62.759186 c -1.14221,-1.169999 -0.9323,-3.741549 0.221323,-4.900296 L 57.652094,36.372299 c 0.806196,-0.809776 2.028257,-1.311883 3.170886,-1.302564 l 8.121431,0.06623"
         sodipodi:nodetypes="csscssssssssc"
         inkscape:label="frame" /></g><path
       id="path8"
       style="fill:none;stroke:#000000;stroke-width:1.5;stroke-linecap:round;stroke-opacity:1"
       inkscape:label="keyring"
       d="m 73.195257,39.87 c -2.747633,-2.873256 -2.310009,-7.127369 -2.236209,-7.615792 0.722152,-4.779357 4.847363,-8.442749 9.828206,-8.442749 5.489857,0 10.219069,4.457492 9.940266,9.940265 -0.255594,5.02635 -1.593462,7.310591 -5.287869,8.96425 -1.08159,0.484133 -3.186251,0.998426 -4.465075,0.519595"
       sodipodi:nodetypes="cssssc" /></g></svg>
