<?xml version="1.0" encoding="UTF-8" standalone="no"?>
<!-- Created with Inkscape (http://www.inkscape.org/) -->

<svg
   width="49mm"
   height="49mm"
   viewBox="0 0 49 49"
   version="1.1"
   id="svg1"
   xml:space="preserve"
   inkscape:version="1.4 (1:1.4+202410161351+e7c3feb100)"
   sodipodi:docname="tag.svg"
   inkscape:export-filename="tag.png"
   inkscape:export-xdpi="6.7733335"
   inkscape:export-ydpi="6.7733335"
   xmlns:inkscape="http://www.inkscape.org/namespaces/inkscape"
   xmlns:sodipodi="http://sodipodi.sourceforge.net/DTD/sodipodi-0.dtd"
   xmlns="http://www.w3.org/2000/svg"
   xmlns:svg="http://www.w3.org/2000/svg"><sodipodi:namedview
     id="namedview1"
     pagecolor="#ffffff"
     bordercolor="#000000"
     borderopacity="0.25"
     inkscape:showpageshadow="2"
     inkscape:pageopacity="0.0"
     inkscape:pagecheckerboard="0"
     inkscape:deskcolor="#d1d1d1"
     inkscape:document-units="mm"
     inkscape:zoom="2.9279062"
     inkscape:cx="142.4226"
     inkscape:cy="85.897561"
     inkscape:window-width="1235"
     inkscape:window-height="1186"
     inkscape:window-x="2789"
     inkscape:window-y="137"
     inkscape:window-maximized="0"
     inkscape:current-layer="layer2"
     showgrid="false" /><defs
     id="defs1" /><g
     inkscape:groupmode="layer"
     id="layer2"
     inkscape:label="drawing"
     transform="translate(-32.802878,-32.170316)"><g
       id="g3"
       inkscape:label="tag-top"><path
         id="path10"
         style="fill:#dbdbdb;fill-opacity:1;stroke:none;stroke-width:1.5;stroke-linecap:round;stroke-opacity:1"
         d="m 74.734902,35.18319 c 2.020547,0.01648 4.502816,1.966551 4.566898,3.986149 l 0.08156,4.228452 0.03039,10.106867 c 0.0017,1.081965 -0.475147,2.239534 -1.248563,2.996159 L 56.642643,77.55611 c -1.456225,1.42461 -4.688265,1.505482 -6.111353,0.04777 L 36.039182,62.759186 c -1.14221,-1.169999 -0.9323,-3.741549 0.221323,-4.900296 L 57.652094,36.372299 c 0.806196,-0.809776 2.028257,-1.311883 3.170886,-1.302564 l 10.03982,0.08188 z"
         sodipodi:nodetypes="sscsssssssscs"
         inkscape:label="background" /><path
         d="M 51.254136,69.857873 65.958637,55.148736"
         style="fill:none;stroke:#000000;stroke-width:3.4;stroke-linecap:round;stroke-dasharray:none;stroke-opacity:1"
         id="path2"
         sodipodi:nodetypes="cc"
         inkscape:label="line-2" /><path
         d="M 44.387874,62.220289 63.448889,44.02729"
         style="fill:none;stroke:#000000;stroke-width:3.4;stroke-linecap:round;stroke-dasharray:none;stroke-opacity:1"
         id="path1"
         sodipodi:nodetypes="cc"
         inkscape:label="line-1" /><path
         id="rect1"
         style="fill:none;stroke:#000000;stroke-width:3.4;stroke-linecap:round;stroke-dasharray:none;stroke-opacity:1"
         d="m 74.734902,35.18319 c 2.020547,0.01648 4.502816,1.966551 4.566898,3.986149 l 0.08156,4.228452 0.03039,10.106867 c 0.0017,1.081965 -0.475147,2.239534 -1.248563,2.996159 L 56.642643,77.55611 c -1.456225,1.42461 -4.688265,1.505482 -6.111353,0.04777 L 36.039182,62.759186 c -1.14221,-1.169999 -0.9323,-3.741549 0.221323,-4.900296 L 57.652094,36.372299 c 0.806196,-0.809776 2.028257,-1.311883 3.170886,-1.302564 l 10.03982,0.08188 z"
         sodipodi:nodetypes="sscsssssssscs"
         inkscape:label="frame" /></g></g></svg>
