<?xml version="1.0" encoding="UTF-8" standalone="no"?>
<!-- Created with Inkscape (http://www.inkscape.org/) -->

<svg
   width="69mm"
   height="69mm"
   viewBox="0 0 69 69"
   version="1.1"
   id="svg1"
   xml:space="preserve"
   inkscape:version="1.4.2 (1:1.4.2+202505120738+ebf0e940d0)"
   sodipodi:docname="tag.svg"
   inkscape:export-filename="tag_48x48.png"
   inkscape:export-xdpi="21.391026"
   inkscape:export-ydpi="21.391026"
   xmlns:inkscape="http://www.inkscape.org/namespaces/inkscape"
   xmlns:sodipodi="http://sodipodi.sourceforge.net/DTD/sodipodi-0.dtd"
   xmlns="http://www.w3.org/2000/svg"
   xmlns:svg="http://www.w3.org/2000/svg"><sodipodi:namedview
     id="namedview1"
     pagecolor="#ffffff"
     bordercolor="#000000"
     borderopacity="0.25"
     inkscape:showpageshadow="2"
     inkscape:pageopacity="0.0"
     inkscape:pagecheckerboard="0"
     inkscape:deskcolor="#d1d1d1"
     inkscape:document-units="mm"
     inkscape:zoom="2.0703423"
     inkscape:cx="187.16712"
     inkscape:cy="142.48852"
     inkscape:window-width="1920"
     inkscape:window-height="1003"
     inkscape:window-x="0"
     inkscape:window-y="40"
     inkscape:window-maximized="1"
     inkscape:current-layer="layer2"
     showgrid="false" /><defs
     id="defs1" /><g
     inkscape:groupmode="layer"
     id="layer2"
     inkscape:label="drawing"
     transform="translate(-28.374941,-19.157604)"><g
       id="g3"
       inkscape:label="tag-top"
       transform="matrix(1.0007486,0,0,1.0118559,1.1237618,2.5292248)"
       style="stroke-width:0.993752"><path
         id="path10"
         style="fill:#8e8e8e;fill-opacity:1;stroke:none;stroke-width:1.49063;stroke-linecap:round;stroke-opacity:1"
         d="m 74.734902,35.18319 c 2.020547,0.01648 4.502816,1.966551 4.566898,3.986149 l 0.08156,4.228452 0.03039,10.106867 c 0.0017,1.081965 -0.475147,2.239534 -1.248563,2.996159 L 56.642643,77.55611 c -1.456225,1.42461 -4.688265,1.505482 -6.111353,0.04777 L 36.039182,62.759186 c -1.14221,-1.169999 -0.9323,-3.741549 0.221323,-4.900296 L 57.652094,36.372299 c 0.806196,-0.809776 2.028257,-1.311883 3.170886,-1.302564 l 10.03982,0.08188 z"
         sodipodi:nodetypes="sscsssssssscs"
         inkscape:label="background" /><path
         d="M 52.932102,71.690103 63.263939,61.093496"
         style="fill:none;stroke:#000000;stroke-width:1.49063;stroke-linecap:round;stroke-opacity:1"
         id="path3"
         sodipodi:nodetypes="cc"
         inkscape:label="line-3" /><path
         d="M 47.820226,66.514329 66.139369,47.73872"
         style="fill:none;stroke:#000000;stroke-width:1.49063;stroke-linecap:round;stroke-opacity:1"
         id="path2"
         sodipodi:nodetypes="cc"
         inkscape:label="line-2" /><path
         d="M 42.580553,60.955164 56.490703,47.099736"
         style="fill:none;stroke:#000000;stroke-width:1.49063;stroke-linecap:round;stroke-opacity:1"
         id="path1"
         sodipodi:nodetypes="cc"
         inkscape:label="line-1" /><path
         id="path9"
         style="fill:none;stroke:#000000;stroke-width:1.49063;stroke-linecap:round"
         d="m 74.540077,38.642035 c 0.753115,0.356263 1.199791,1.037972 1.115235,2.004269 -0.08456,0.966297 -0.900188,1.703757 -1.870095,1.690852 -0.969904,-0.0129 -1.786811,-0.509364 -2.110251,-1.389709"
         sodipodi:nodetypes="cssc"
         inkscape:label="hole" /><path
         id="rect1"
         style="fill:none;stroke:#000000;stroke-width:1.49063;stroke-linecap:round;stroke-opacity:1"
         d="m 72.781189,35.16726 1.953713,0.01593 c 2.020547,0.01648 4.502816,1.966551 4.566898,3.986149 l 0.08156,4.228452 0.03039,10.106867 c 0.0017,1.081965 -0.475147,2.239534 -1.248563,2.996159 L 56.642643,77.55611 c -1.456225,1.42461 -4.688265,1.505482 -6.111353,0.04777 L 36.039182,62.759186 c -1.14221,-1.169999 -0.9323,-3.741549 0.221323,-4.900296 L 57.652094,36.372299 c 0.806196,-0.809776 2.028257,-1.311883 3.170886,-1.302564 l 8.121431,0.06623"
         sodipodi:nodetypes="csscssssssssc"
         inkscape:label="frame" /></g><path
       id="path8"
       style="fill:none;stroke:#000000;stroke-width:1.5;stroke-linecap:round;stroke-opacity:1"
       inkscape:label="keyring"
       d="m 74.373814,42.87192 c -2.74969,-2.907321 -2.311739,-7.211871 -2.237883,-7.706085 0.722692,-4.83602 4.850991,-8.542845 9.835563,-8.542845 5.493967,0 10.226719,4.51034 9.947707,10.058116 -0.255785,5.085942 -1.594654,7.397265 -5.291827,9.070529 -1.0824,0.489873 -3.188636,1.010263 -4.468418,0.525755"
       sodipodi:nodetypes="cssssc" /></g></svg>
