<?xml version="1.0" encoding="UTF-8" standalone="no"?>
<!-- Created with Inkscape (http://www.inkscape.org/) -->

<svg
   width="69mm"
   height="69mm"
   viewBox="0 0 69 69"
   version="1.1"
   id="svg1"
   xml:space="preserve"
   inkscape:version="1.4.2 (1:1.4.2+202505120738+ebf0e940d0)"
   sodipodi:docname="tags_missing.svg"
   inkscape:export-filename="tags_missing_36x36.png"
   inkscape:export-xdpi="13.252173"
   inkscape:export-ydpi="13.252173"
   xmlns:inkscape="http://www.inkscape.org/namespaces/inkscape"
   xmlns:sodipodi="http://sodipodi.sourceforge.net/DTD/sodipodi-0.dtd"
   xmlns="http://www.w3.org/2000/svg"
   xmlns:svg="http://www.w3.org/2000/svg"><sodipodi:namedview
     id="namedview1"
     pagecolor="#ffffff"
     bordercolor="#000000"
     borderopacity="0.25"
     inkscape:showpageshadow="2"
     inkscape:pageopacity="0.0"
     inkscape:pagecheckerboard="0"
     inkscape:deskcolor="#d1d1d1"
     inkscape:document-units="mm"
     inkscape:zoom="2.9279062"
     inkscape:cx="146.35032"
     inkscape:cy="125.34555"
     inkscape:window-width="1920"
     inkscape:window-height="1003"
     inkscape:window-x="0"
     inkscape:window-y="40"
     inkscape:window-maximized="1"
     inkscape:current-layer="layer2"
     showgrid="false" /><defs
     id="defs1" /><g
     inkscape:groupmode="layer"
     id="layer2"
     inkscape:label="drawing"
     transform="translate(-28.374941,-19.157604)"><g
       id="g7"
       inkscape:label="tag-bottom"
       transform="rotate(-30.877027,74.761038,39.810493)"
       inkscape:transform-center-x="6.0741695"
       inkscape:transform-center-y="20.954847"><path
         id="path7"
         style="fill:#ffffff;fill-opacity:1;stroke:none;stroke-width:1.5;stroke-linecap:round;stroke-opacity:1"
         d="m 79.196579,44.512421 0.217216,8.99224 c 0.02613,1.081652 -0.475147,2.239534 -1.248563,2.996159 L 56.642643,77.55611 c -1.456225,1.42461 -4.688265,1.505482 -6.111353,0.04777 L 36.039182,62.759186 C 34.896972,61.589187 34.876441,58.72947 36.260505,57.85889 L 40.01074,53.932478 70.4403,37.836552 Z"
         sodipodi:nodetypes="cssssssccc"
         inkscape:label="background" /><path
         id="path11"
         style="display:inline;fill:none;stroke:#000000;stroke-width:1.5;stroke-linecap:round;stroke-opacity:1"
         d="m 79.253517,44.817669 0.160278,8.686992 c 0.01996,1.081783 -0.475147,2.239534 -1.248563,2.996159 L 56.642643,77.55611 c -1.456225,1.42461 -4.688265,1.505482 -6.111353,0.04777 L 36.039182,62.759186 c -1.14221,-1.169999 -0.931399,-3.740652 0.221323,-4.900296 l 1.957808,-1.969564"
         sodipodi:nodetypes="cssssssc"
         inkscape:label="frame" /></g><g
       id="g3"
       inkscape:label="tag-top"><path
         id="path10"
         style="fill:#ffffff;fill-opacity:1;stroke:none;stroke-width:1.5;stroke-linecap:round;stroke-opacity:1"
         d="m 74.734902,35.18319 c 2.020547,0.01648 4.502816,1.966551 4.566898,3.986149 l 0.08156,4.228452 0.03039,10.106867 c 0.0017,1.081965 -0.475147,2.239534 -1.248563,2.996159 L 56.642643,77.55611 c -1.456225,1.42461 -4.688265,1.505482 -6.111353,0.04777 L 36.039182,62.759186 c -1.14221,-1.169999 -0.9323,-3.741549 0.221323,-4.900296 L 57.652094,36.372299 c 0.806196,-0.809776 2.028257,-1.311883 3.170886,-1.302564 l 10.03982,0.08188 z"
         sodipodi:nodetypes="sscsssssssscs"
         inkscape:label="background" /><path
         id="rect1"
         style="fill:none;stroke:#000000;stroke-width:1.5;stroke-linecap:round;stroke-opacity:1"
         d="m 72.781189,35.16726 1.953713,0.01593 c 2.020547,0.01648 4.502816,1.966551 4.566898,3.986149 l 0.08156,4.228452 0.03039,10.106867 c 0.0017,1.081965 -0.475147,2.239534 -1.248563,2.996159 L 56.642643,77.55611 c -1.456225,1.42461 -4.688265,1.505482 -6.111353,0.04777 L 36.039182,62.759186 c -1.14221,-1.169999 -0.9323,-3.741549 0.221323,-4.900296 L 57.652094,36.372299 c 0.806196,-0.809776 2.028257,-1.311883 3.170886,-1.302564 l 8.121431,0.06623"
         sodipodi:nodetypes="csscssssssssc"
         inkscape:label="frame" /></g><path
       id="path8"
       style="fill:none;stroke:#000000;stroke-width:1.5;stroke-linecap:round;stroke-opacity:1"
       inkscape:label="keyring"
       d="m 73.195257,39.87 c -2.747633,-2.873256 -2.310009,-7.127369 -2.236209,-7.615792 0.722152,-4.779357 4.847363,-8.442749 9.828206,-8.442749 5.489857,0 9.940266,4.450408 9.940266,9.940265 0,3.465732 -2.796025,8.306363 -6.635315,9.574211"
       sodipodi:nodetypes="csssc" /></g></svg>
